<svg width="496" height="500" viewBox="0 0 496 500" fill="none" xmlns="http://www.w3.org/2000/svg">
<rect x="110.5" y="212" width="71" height="65" rx="32.5" fill="white"/>
<rect x="110.5" y="212" width="71" height="65" rx="32.5" stroke="#6A00FF"/>
<path d="M156.607 253.517L146.154 261.789C146.128 261.809 146.096 261.814 146.069 261.832C146.01 261.871 145.949 261.898 145.886 261.925C145.824 261.951 145.763 261.971 145.698 261.984C145.63 261.998 145.564 262 145.494 262C145.432 262 145.373 261.998 145.311 261.985C145.241 261.972 145.174 261.949 145.106 261.922C145.046 261.898 144.99 261.871 144.935 261.834C144.907 261.816 144.873 261.81 144.846 261.789L134.392 253.517C133.942 253.159 133.868 252.51 134.229 252.064C134.435 251.811 134.739 251.677 135.045 251.677C135.274 251.677 135.505 251.75 135.698 251.903L144.454 258.83L144.461 232.033C144.461 231.462 144.93 231 145.506 231C146.084 231 146.552 231.463 146.552 232.033L146.546 258.83L155.302 251.904C155.495 251.752 155.724 251.678 155.955 251.678C156.262 251.678 156.566 251.811 156.773 252.065C157.131 252.51 157.059 253.161 156.607 253.517Z" fill="#6A00FF"/>
</svg>
