<svg xmlns="http://www.w3.org/2000/svg" xmlns:xlink="http://www.w3.org/1999/xlink" width="500" zoomAndPan="magnify" viewBox="0 0 375 374.999991" height="500" preserveAspectRatio="xMidYMid meet" version="1.0"><defs><clipPath id="1ba3f4f371"><path d="M 106.691406 125.714844 L 256.691406 125.714844 L 256.691406 227.714844 L 106.691406 227.714844 Z M 106.691406 125.714844 " clip-rule="nonzero"/></clipPath></defs><rect x="-37.5" width="450" fill="#ffffff" y="-37.499999" height="449.999989" fill-opacity="1"/><rect x="-37.5" width="450" fill="#ffffff" y="-37.499999" height="449.999989" fill-opacity="1"/><g clip-path="url(#1ba3f4f371)"><path fill="#6a00ff" d="M 254.5625 126.058594 C 253.25 125.75 251.9375 126.566406 251.628906 127.878906 C 244.515625 158.316406 225.441406 185.601562 199.296875 202.730469 C 173.152344 219.863281 140.523438 226.464844 109.773438 220.835938 C 108.449219 220.59375 107.175781 221.472656 106.933594 222.800781 C 106.691406 224.125 107.570312 225.398438 108.894531 225.640625 C 116.375 227.011719 123.957031 227.683594 131.539062 227.683594 C 156.363281 227.683594 181.148438 220.464844 201.972656 206.816406 C 229.15625 189.003906 248.988281 160.636719 256.386719 128.992188 C 256.691406 127.679688 255.875 126.367188 254.5625 126.058594 Z M 254.5625 126.058594 " fill-opacity="1" fill-rule="nonzero"/></g></svg>