<svg width="35" height="36" viewBox="0 0 35 36" fill="none" xmlns="http://www.w3.org/2000/svg">
<path fill-rule="evenodd" clip-rule="evenodd" d="M29.5228 10.4791C32.1886 10.4791 34.3497 8.31801 34.3497 5.6522C34.3497 2.98638 32.1886 0.825317 29.5228 0.825317C26.857 0.825317 24.6959 2.98638 24.6959 5.6522C24.6959 8.31801 26.857 10.4791 29.5228 10.4791Z" fill="#6A00FF"/>
<path fill-rule="evenodd" clip-rule="evenodd" d="M29.5226 22.6021C32.1884 22.6021 34.3494 20.4411 34.3494 17.7753C34.3494 15.1096 32.1884 12.9486 29.5226 12.9486C26.8567 12.9486 24.6957 15.1096 24.6957 17.7753C24.6957 20.4411 26.8567 22.6021 29.5226 22.6021Z" fill="#6A00FF"/>
<path fill-rule="evenodd" clip-rule="evenodd" d="M29.5226 35.1745C32.1884 35.1745 34.3494 33.0134 34.3494 30.3476C34.3494 27.6818 32.1884 25.5208 29.5226 25.5208C26.8567 25.5208 24.6957 27.6818 24.6957 30.3476C24.6957 33.0134 26.8567 35.1745 29.5226 35.1745Z" fill="#6A00FF"/>
<path fill-rule="evenodd" clip-rule="evenodd" d="M16.9506 22.6021C19.6164 22.6021 21.7774 20.4411 21.7774 17.7753C21.7774 15.1096 19.6164 12.9486 16.9506 12.9486C14.2849 12.9486 12.1239 15.1096 12.1239 17.7753C12.1239 20.4411 14.2849 22.6021 16.9506 22.6021Z" fill="#6A00FF"/>
<path fill-rule="evenodd" clip-rule="evenodd" d="M16.9504 35.1745C19.6162 35.1745 21.7772 33.0134 21.7772 30.3476C21.7772 27.6818 19.6162 25.5208 16.9504 25.5208C14.2847 25.5208 12.1237 27.6818 12.1237 30.3476C12.1237 33.0134 14.2847 35.1745 16.9504 35.1745Z" fill="#6A00FF"/>
<path fill-rule="evenodd" clip-rule="evenodd" d="M4.82688 35.1745C7.49269 35.1745 9.65376 33.0134 9.65376 30.3476C9.65376 27.6818 7.49269 25.5208 4.82688 25.5208C2.16107 25.5208 0 27.6818 0 30.3476C0 33.0134 2.16107 35.1745 4.82688 35.1745Z" fill="#6A00FF"/>
</svg>
