<svg xmlns="http://www.w3.org/2000/svg" xmlns:xlink="http://www.w3.org/1999/xlink" width="500" zoomAndPan="magnify" viewBox="0 0 375 374.999991" height="500" preserveAspectRatio="xMidYMid meet" version="1.0"><defs><clipPath id="da1650dd3d"><path d="M 113 166.3125 L 262 166.3125 L 262 207 L 113 207 Z M 113 166.3125 " clip-rule="nonzero"/></clipPath></defs><rect x="-37.5" width="450" fill="#ffffff" y="-37.499999" height="449.999989" fill-opacity="1"/><rect x="-37.5" width="450" fill="#ffffff" y="-37.499999" height="449.999989" fill-opacity="1"/><g clip-path="url(#da1650dd3d)"><path fill="#6a00ff" d="M 114.878906 167.546875 C 114.800781 167.652344 114.789062 167.765625 114.839844 167.890625 C 114.539062 168.234375 113.851562 167.96875 113.734375 168.601562 C 112.722656 169.605469 113.109375 170.632812 113.707031 171.648438 C 115.394531 174.492188 117.511719 177.003906 119.785156 179.386719 C 127.925781 187.910156 137.472656 194.34375 148.257812 199.144531 C 167.085938 207.539062 186.515625 208.699219 206.4375 204.601562 C 215.675781 202.699219 224.40625 199.222656 232.972656 195.34375 C 238.011719 193.058594 242.894531 190.480469 247.839844 188.023438 C 247.980469 187.855469 248.113281 187.6875 248.253906 187.523438 C 248.496094 187.511719 248.769531 187.429688 248.96875 187.515625 C 248.96875 187.515625 248.96875 187.515625 248.972656 187.523438 C 249.128906 187.59375 249.023438 187.816406 248.847656 187.90625 C 247.886719 189.847656 246.546875 191.527344 245.121094 193.132812 C 244.140625 194.230469 243.277344 195.371094 242.765625 196.757812 C 240.644531 199.105469 240.570312 201.625 242.460938 203.8125 C 248.351562 201.539062 251.945312 196.867188 255.210938 191.820312 C 256.425781 189.945312 257.765625 188.15625 259.078125 186.34375 C 262.21875 182.011719 261.519531 182.460938 259.78125 178.46875 C 259.394531 177.574219 258.804688 176.785156 258.136719 176.066406 C 257.894531 175.796875 257.644531 175.574219 257.261719 175.574219 C 256.761719 174.582031 255.828125 174.570312 254.917969 174.605469 C 252.210938 174.703125 249.511719 174.835938 246.808594 174.960938 C 246.242188 174.648438 245.652344 174.742188 245.0625 174.863281 C 244.507812 174.53125 243.914062 174.636719 243.324219 174.714844 C 242.96875 174.414062 242.527344 174.527344 242.121094 174.472656 C 236.628906 173.699219 231.300781 172.320312 226.226562 170.039062 C 225.84375 169.867188 225.449219 169.726562 225.058594 169.574219 C 224.597656 169.382812 224.078125 169.167969 223.710938 169.601562 C 223.433594 169.929688 223.511719 170.523438 223.753906 170.792969 C 224.832031 172.003906 224.992188 173.675781 225.933594 174.9375 C 226.347656 175.5 226.960938 175.84375 227.585938 176.179688 C 232.414062 178.820312 237.574219 180.53125 242.921875 181.71875 C 243.398438 181.824219 243.902344 181.855469 244.34375 182.058594 C 244.851562 182.289062 244.710938 182.722656 244.453125 183.105469 C 243.898438 183.039062 243.503906 183.261719 243.25 183.746094 C 242.730469 183.785156 242.230469 183.863281 241.972656 184.402344 C 241.84375 184.339844 241.761719 184.378906 241.722656 184.511719 C 241.226562 184.535156 240.769531 184.632812 240.503906 185.117188 C 240.171875 185.207031 239.820312 185.25 239.511719 185.394531 C 236.09375 186.960938 232.707031 188.582031 229.273438 190.109375 C 226.160156 191.5 223.003906 192.789062 219.867188 194.113281 C 218.996094 194.363281 218.117188 194.582031 217.261719 194.863281 C 208.921875 197.570312 200.378906 199.230469 191.609375 199.605469 C 188.476562 199.742188 185.34375 199.777344 182.210938 199.855469 C 181.617188 199.523438 181.007812 199.65625 180.390625 199.777344 C 179.832031 199.445312 179.246094 199.5625 178.660156 199.671875 C 178.148438 199.316406 177.59375 199.46875 177.042969 199.523438 C 176.726562 199.257812 176.375 199.273438 176.015625 199.402344 C 175.894531 199.3125 175.769531 199.308594 175.644531 199.390625 C 175.289062 199.101562 174.847656 199.203125 174.449219 199.136719 C 172.472656 198.796875 170.445312 198.8125 168.507812 198.230469 C 168.335938 198.390625 167.761719 198.472656 168.460938 198.769531 C 168.929688 198.96875 168.957031 199.105469 168.828125 199.222656 C 168.71875 199.324219 168.488281 199.40625 168.324219 199.492188 C 162.113281 198.222656 156.132812 196.226562 150.277344 193.832031 C 149.757812 193.558594 149.230469 193.285156 148.707031 193.015625 C 145.585938 191.386719 142.460938 189.761719 139.339844 188.136719 C 139.277344 188.003906 139.1875 187.917969 139.078125 187.867188 C 139 187.832031 138.914062 187.816406 138.820312 187.816406 C 138.722656 187.601562 138.550781 187.5 138.316406 187.503906 C 138.222656 187.285156 138.050781 187.183594 137.8125 187.195312 C 137.722656 186.96875 137.550781 186.867188 137.304688 186.878906 C 137.214844 186.648438 137.050781 186.539062 136.804688 186.554688 C 136.722656 186.324219 136.554688 186.21875 136.3125 186.234375 L 136.304688 186.226562 C 136.226562 186 136.0625 185.890625 135.824219 185.90625 L 135.8125 185.902344 C 135.660156 185.785156 135.5 185.671875 135.332031 185.574219 L 135.316406 185.5625 C 135.238281 185.335938 135.082031 185.222656 134.839844 185.234375 L 134.824219 185.222656 C 134.746094 184.996094 134.589844 184.882812 134.34375 184.894531 L 134.328125 184.882812 C 134.328125 184.882812 134.324219 184.878906 134.324219 184.878906 C 134.324219 184.878906 134.328125 184.882812 134.328125 184.882812 C 134.257812 184.652344 134.09375 184.539062 133.851562 184.550781 L 133.839844 184.546875 C 133.765625 184.3125 133.605469 184.199219 133.363281 184.210938 L 133.355469 184.207031 C 133.277344 183.972656 133.117188 183.855469 132.875 183.863281 C 131.453125 182.710938 130.035156 181.5625 128.613281 180.414062 C 127.6875 180.046875 127.046875 179.296875 126.332031 178.660156 C 126.359375 178.546875 126.410156 178.457031 126.46875 178.378906 C 126.5625 178.257812 126.6875 178.175781 126.851562 178.125 C 126.363281 177.585938 125.914062 177.007812 125.210938 176.726562 C 124.988281 176.660156 124.78125 176.566406 124.621094 176.386719 C 124.816406 176.496094 125.007812 176.613281 125.210938 176.726562 C 125.085938 176.519531 124.949219 176.34375 124.6875 176.382812 C 124.621094 176.019531 124.394531 175.804688 124.058594 175.671875 C 124.019531 175.4375 123.898438 175.292969 123.648438 175.28125 C 123.546875 175.058594 123.414062 174.886719 123.15625 174.859375 C 123.121094 174.742188 123.058594 174.652344 122.9375 174.605469 C 122.554688 173.992188 122.066406 173.492188 121.453125 173.109375 C 121.160156 172.695312 120.878906 172.265625 120.394531 172.039062 C 120.304688 171.707031 120.03125 171.527344 119.785156 171.332031 C 118.628906 169.6875 117.179688 168.265625 116.296875 166.316406 C 115.8125 166.894531 115 166.796875 114.878906 167.546875 Z M 241.792969 184.921875 C 241.789062 184.921875 241.789062 184.921875 241.78125 184.921875 C 241.78125 184.929688 241.789062 184.929688 241.789062 184.929688 C 241.78125 184.929688 241.777344 184.921875 241.777344 184.921875 C 241.777344 184.921875 241.78125 184.921875 241.78125 184.921875 C 241.78125 184.917969 241.78125 184.910156 241.777344 184.90625 C 241.789062 184.910156 241.789062 184.917969 241.792969 184.921875 Z M 133.273438 185.5625 C 133.308594 185.59375 133.339844 185.628906 133.375 185.660156 C 133.363281 185.65625 133.351562 185.652344 133.339844 185.644531 C 133.308594 185.621094 133.273438 185.601562 133.238281 185.574219 C 133.246094 185.574219 133.257812 185.566406 133.273438 185.5625 Z M 139.304688 188.136719 C 139.304688 188.144531 139.300781 188.144531 139.300781 188.148438 C 139.289062 188.160156 139.28125 188.175781 139.269531 188.1875 L 139.234375 188.226562 L 139.300781 188.144531 C 139.300781 188.136719 139.292969 188.136719 139.292969 188.132812 C 139.292969 188.136719 139.300781 188.136719 139.304688 188.136719 Z M 133.066406 185.640625 C 133.125 185.617188 133.179688 185.59375 133.230469 185.578125 C 133.261719 185.601562 133.296875 185.621094 133.328125 185.644531 C 133.25 185.605469 133.164062 185.601562 133.066406 185.640625 Z M 133.546875 185.804688 C 133.585938 185.832031 133.625 185.863281 133.65625 185.890625 C 133.65625 185.894531 133.660156 185.894531 133.660156 185.902344 C 133.625 185.867188 133.585938 185.832031 133.546875 185.804688 Z M 115.941406 171.195312 C 115.933594 171.195312 115.929688 171.1875 115.921875 171.1875 C 115.921875 171.1875 115.917969 171.183594 115.917969 171.183594 C 115.917969 171.175781 115.914062 171.171875 115.914062 171.167969 C 115.921875 171.171875 115.929688 171.183594 115.941406 171.195312 Z M 116.457031 171.921875 C 116.457031 171.933594 116.457031 171.945312 116.46875 171.949219 C 116.46875 171.9375 116.457031 171.925781 116.457031 171.921875 Z M 124.257812 176.347656 C 124.222656 176.363281 124.183594 176.386719 124.144531 176.421875 C 124.136719 176.390625 124.132812 176.363281 124.125 176.335938 C 124.171875 176.34375 124.214844 176.34375 124.257812 176.347656 Z M 123.265625 175.121094 C 123.203125 175.078125 123.160156 175.007812 123.132812 174.925781 C 123.132812 174.925781 123.132812 174.925781 123.136719 174.925781 C 123.171875 175.003906 123.210938 175.070312 123.265625 175.121094 Z M 123.265625 175.121094 " fill-opacity="1" fill-rule="nonzero"/></g><path fill="#6a00ff" d="M 135.300781 185.5625 C 135.460938 185.671875 135.621094 185.777344 135.777344 185.890625 C 135.699219 185.65625 135.539062 185.550781 135.300781 185.5625 Z M 135.300781 185.5625 " fill-opacity="1" fill-rule="nonzero"/></svg>